<svg width="43" height="43" viewBox="0 0 43 43" fill="none" xmlns="http://www.w3.org/2000/svg">
<path fill-rule="evenodd" clip-rule="evenodd" d="M5.82342 10.199C7.46229 8.34221 9.86584 7.16675 12.5417 7.16675H30.4584C32.7291 7.16675 34.8063 8.01392 36.3844 9.4068C38.2412 11.0457 39.4167 13.4492 39.4167 16.1251V26.8751C39.4167 31.8226 35.4059 35.8334 30.4584 35.8334H12.5417C7.59416 35.8334 3.58337 31.8226 3.58337 26.8751V16.1251C3.58337 13.8544 4.43055 11.7772 5.82342 10.199ZM9.98414 11.3959L21.4428 20.915L32.2225 11.0458C31.6703 10.8541 31.0769 10.7501 30.4584 10.7501H12.5417C11.6156 10.7501 10.7448 10.9835 9.98414 11.3959ZM35.0448 13.3202L22.7099 24.6132C22.0494 25.2179 21.044 25.2421 20.3552 24.6699L7.57878 14.0562C7.31313 14.6927 7.16671 15.3911 7.16671 16.1251V26.8751C7.16671 29.8436 9.57318 32.2501 12.5417 32.2501H30.4584C33.4269 32.2501 35.8334 29.8436 35.8334 26.8751V16.1251C35.8334 15.097 35.5457 14.137 35.0448 13.3202Z" fill="white" stroke="#959595" stroke-linecap="round" stroke-linejoin="round"/>
</svg>
