<svg width="42" height="37" viewBox="0 0 42 37" fill="none" xmlns="http://www.w3.org/2000/svg">
<path d="M21.7498 8.96585L21.8424 8.99346L21.8485 8.98641C22.1306 9.02071 22.4032 8.84726 22.4863 8.56707C23.1866 6.21389 25.3934 4.56957 27.8518 4.56957C28.1787 4.56957 28.4439 4.30442 28.4439 3.97749C28.4439 3.65054 28.1787 3.3854 27.8518 3.3854C24.7712 3.3854 22.1826 5.43649 21.3515 8.22956C21.258 8.54307 21.4366 8.87244 21.7498 8.96585Z" fill="#959595" stroke="#F9FFF9" stroke-width="0.3"/>
<path d="M34.0406 25.6396H31.3881C31.144 25.6396 30.946 25.4416 30.946 25.1975C30.946 24.9534 31.144 24.7554 31.3881 24.7554H34.0406C37.6969 24.7554 40.6718 21.7805 40.6718 18.1242C40.6718 14.4679 37.6969 11.4929 34.0406 11.4929H33.9768C33.8486 11.4929 33.7267 11.4374 33.6427 11.3404C33.5587 11.2435 33.5208 11.115 33.5391 10.988C33.5786 10.7127 33.5985 10.4361 33.5985 10.1667C33.5985 6.99794 31.0202 4.41961 27.8514 4.41961C26.6186 4.41961 25.443 4.80485 24.4515 5.53396C24.2336 5.69406 23.9241 5.62302 23.7981 5.38334C20.99 0.0360679 13.6554 -0.682016 9.85276 3.96964C8.25087 5.92932 7.62147 8.47855 8.12582 10.9631C8.18139 11.2375 7.9714 11.4933 7.69257 11.4933H7.51543C3.85913 11.4933 0.884206 14.4682 0.884206 18.1245C0.884206 21.7808 3.85913 24.7557 7.51543 24.7557H10.1679C10.412 24.7557 10.61 24.9537 10.61 25.1978C10.61 25.4419 10.412 25.6399 10.1679 25.6399H7.51543C3.37151 25.6399 0 22.2684 0 18.1245C0 14.0968 3.18486 10.7989 7.16839 10.617C6.7942 8.03929 7.50974 5.43921 9.16816 3.4101C13.2394 -1.57057 21.0416 -1.0123 24.3398 4.54151C25.392 3.88185 26.596 3.5358 27.8513 3.5358C31.6904 3.5358 34.7326 6.80344 34.4664 10.6211C38.4132 10.8424 41.5558 14.123 41.5558 18.1242C41.5558 22.2684 38.1843 25.6396 34.0404 25.6396L34.0406 25.6396Z" fill="#959595"/>
<path d="M9.5165 24.9479C9.5165 31.125 14.5417 36.1501 20.7187 36.1501C26.8957 36.1501 31.9208 31.1249 31.9208 24.9479C31.9208 18.7709 26.8957 13.7458 20.7187 13.7458C14.5416 13.7458 9.5165 18.7709 9.5165 24.9479ZM10.7009 24.9479C10.7009 19.4243 15.195 14.9301 20.7187 14.9301C26.2423 14.9301 30.7365 19.4242 30.7365 24.9479C30.7365 30.4715 26.2423 34.9657 20.7187 34.9657C15.1951 34.9657 10.7009 30.4716 10.7009 24.9479Z" fill="#959595" stroke="#F9FFF9" stroke-width="0.3"/>
<path d="M20.4472 29.3969C20.4472 29.6585 20.6593 29.8706 20.9208 29.8706C21.1823 29.8706 21.3945 29.6588 21.3945 29.3969V20.9819C21.3945 20.7203 21.1824 20.5082 20.9208 20.5082C20.6593 20.5082 20.4472 20.7203 20.4472 20.9819V29.3969Z" fill="#959595" stroke="#959595" stroke-width="0.3"/>
<path d="M23.7388 23.8007L23.8451 23.9066C23.7525 23.9995 23.6306 24.0455 23.51 24.0455L23.7388 23.8007ZM23.7388 23.8007C23.6757 23.8641 23.5927 23.8955 23.51 23.8955L23.7388 23.8007ZM23.7388 23.8007L23.8449 23.9068C24.0299 23.7218 24.0299 23.422 23.8449 23.2369L21.2557 20.6477C21.0707 20.4627 20.7706 20.4626 20.5857 20.6478L23.7388 23.8007ZM20.9207 21.6525L23.175 23.9068C23.2674 23.9992 23.389 24.0455 23.5099 24.0455L20.9207 21.6525ZM20.9207 21.6525L18.6666 23.9067L18.6665 23.9068L20.9207 21.6525Z" fill="#959595" stroke="#959595" stroke-width="0.3"/>
</svg>
